<!--?xml version="1.0" standalone="no"?-->              <svg id="sw-js-blob-svg" viewBox="0 0 100 100" xmlns="http://www.w3.org/2000/svg">                    <defs>                         <linearGradient id="sw-gradient" x1="0" x2="1" y1="1" y2="0">                            <stop id="stop1" stop-color="rgba(49, 211, 92, 1)" offset="0%"></stop>                            <stop id="stop2" stop-color="rgba(43, 183, 218, 1)" offset="100%"></stop>                        </linearGradient>                    </defs>                <path fill="url(#sw-gradient)" d="M18.1,-23C23.4,-17.1,27.7,-11.4,31.7,-3.4C35.6,4.5,39.3,14.6,36.4,22.5C33.6,30.3,24.4,35.9,14.6,39C4.8,42.2,-5.6,42.9,-14.2,39.5C-22.8,36.1,-29.7,28.7,-33.2,20.3C-36.7,11.9,-36.8,2.7,-34.1,-5C-31.5,-12.6,-26.2,-18.8,-20.1,-24.5C-13.9,-30.2,-7,-35.5,-0.3,-35.2C6.4,-34.8,12.8,-28.8,18.1,-23Z" width="100%" height="100%" transform="translate(50 50)" stroke-width="0" style="transition: all 0.3s ease 0s;" stroke="url(#sw-gradient)"></path>              </svg>