<svg id="ae7ad495-543d-4c4b-9483-8059c5566fe6" data-name="Layer 1" xmlns="http://www.w3.org/2000/svg" xmlns:xlink="http://www.w3.org/1999/xlink" width="1009.54" height="839.64" viewBox="0 0 1009.54 839.64"><defs><linearGradient id="f9d7795c-47ab-4264-adf8-fc9a284cd87a" x1="491.14" y1="640.96" x2="698.09" y2="640.96" gradientUnits="userSpaceOnUse"><stop offset="0" stop-color="gray" stop-opacity="0.25"/><stop offset="0.54" stop-color="gray" stop-opacity="0.12"/><stop offset="1" stop-color="gray" stop-opacity="0.1"/></linearGradient></defs><title>personalization</title>
<!-- bg -->

<!-- phone -->
<!-- <path d="M462.36,229.35l-1.61-.49c19.85-64.73,24.81-106,13.95-116.34l1.16-1.22C487.36,122.21,482.7,163,462.36,229.35Z" transform="translate(-95.23 -30.18)" fill="#444053"/> -->
<!-- <path d="M407.7,380.87l-2.37-.84c2.1-5.93,4.37-11.95,6.75-17.89,20.72-51.64,38.36-99.67,49.67-136.55l2.07-1c-11.33,36.95-28.65,86.83-49.4,138.53C412.05,369,409.79,375,407.7,380.87Z" transform="translate(-95.23 -30.18)" fill="#444053"/> -->
<!-- <path d="M457.79,737.2c-.32-.36-32.5-36.58-54.92-98.44A364.43,364.43,0,0,1,381.17,526c-1.54-48.13,8.56-101.87,25.86-150.68l1.88,2.2c-38.83,109.56-23.4,203.45-2.94,260,22.2,61.29,54,97.13,54.32,97.48Z" transform="translate(-95.23 -30.18)" fill="#444053"/> -->
<rect x="642.8" y="289.82" width="8.86" height="73.02" rx="2.29" ry="2.29" fill="#3a3768"/>
<rect x="348.37" y="232.61" width="4.97" height="24.04" rx="2.29" ry="2.29" fill="#3a3768"/>
<rect x="348.19" y="276.63" width="5.6" height="41.84" rx="2.29" ry="2.29" fill="#3a3768"/>
<rect x="348.28" y="333.11" width="5.33" height="42.2" rx="2.29" ry="2.29" fill="#3a3768"/>
<rect x="351.18" y="153.17" width="296.4" height="602.39" rx="38.99" ry="38.99" fill="#3a3768"/>
<path d="M701,199H667v4.09a19.38,19.38,0,0,1-19.39,19.38H539.48a19.38,19.38,0,0,1-19.39-19.38V199H488.26a23.54,23.54,0,0,0-23.54,23.54V746.51a23.54,23.54,0,0,0,23.54,23.54H701a23.54,23.54,0,0,0,23.54-23.54V222.58A23.54,23.54,0,0,0,701,199Z" transform="translate(-95.23 -30.18)" fill="#fff"/></svg>