<svg id="ae7ad495-543d-4c4b-9483-8059c5566fe6" data-name="Layer 1" xmlns="http://www.w3.org/2000/svg" xmlns:xlink="http://www.w3.org/1999/xlink" width="1009.54" height="839.64" viewBox="0 0 1009.54 839.64"><defs><linearGradient id="f9d7795c-47ab-4264-adf8-fc9a284cd87a" x1="491.14" y1="640.96" x2="698.09" y2="640.96" gradientUnits="userSpaceOnUse"><stop offset="0" stop-color="gray" stop-opacity="0.25"/><stop offset="0.54" stop-color="gray" stop-opacity="0.12"/><stop offset="1" stop-color="gray" stop-opacity="0.1"/></linearGradient></defs><title>personalization</title>
<!-- bg -->
<!-- <path d="M681.78,141.58c-64.72-2.25-126.36-23.14-185.22-46S379.4,47.39,316.23,35.28c-40.63-7.79-87.1-8.89-119.83,12.89-31.51,21-41.69,57.15-47.16,90.73-4.12,25.26-6.54,51.85,4.74,75.49,7.84,16.42,21.74,30.22,31.36,45.95,33.47,54.72,9.81,122.2-26.45,175.63-17,25.07-36.75,49-49.88,75.66s-19.2,57.25-7.71,84.47c11.38,27,38.51,47.24,67.9,61.49,59.69,28.95,130,37.23,198.61,41.92,151.83,10.39,304.46,5.89,456.69,1.39,56.34-1.67,112.92-3.36,168.34-12.07,30.78-4.84,62.55-12.51,84.9-31.05,28.36-23.53,35.39-63.37,16.38-92.88-31.88-49.49-120-61.78-142.31-114.89-12.26-29.24.33-61.8,18.16-88.92,38.24-58.16,102.33-109.19,105.7-175.67,2.32-45.66-28.49-91.39-76.13-113-49.93-22.64-119.18-19.8-156,17.69C805.59,128.71,738.93,143.56,681.78,141.58Z" transform="translate(-95.23 -30.18)" fill="#fff" opacity="0.1"/>
<ellipse cx="483.49" cy="780.99" rx="303.97" ry="41.12" fill="#fff" opacity="0.1"/> -->
<!-- ใบไม้ -->
<path d="M428.24,688.75s21-3.36,33.6,11.48c0,0-9.24,7.28-29.12-2.8Z" transform="translate(-95.23 -30.18)" fill="#31D35C"/><path d="M426,688.42S412.6,705,419.17,723.27c0,0,10.92-4.37,12.11-26.63Z" transform="translate(-95.23 -30.18)" fill="#31D35C"/><path d="M414,661.31s8.4-15.4,42,6.16c0,0-4.48,10.36-19.32,9.52S417.87,669.43,414,661.31Z" transform="translate(-95.23 -30.18)" fill="#31D35C"/><path d="M411.79,660.2s-17.43-2-19.12,37.9c0,0,11.05,2.3,18.9-10.33S416.17,668.08,411.79,660.2Z" transform="translate(-95.23 -30.18)" fill="#31D35C"/><path d="M401.63,628.38s9.8-27.17,45.37-7.85c0,0-8.12,24.93-41.73,17.09Z" transform="translate(-95.23 -30.18)" fill="#31D35C"/><path d="M390.71,587.77s18.48-27.44,51.25-2c0,0-11.48,25.76-48.45,11.76Z" transform="translate(-95.23 -30.18)" fill="#31D35C"/><path d="M386.79,549.13s21.56-25.2,54,0c0,0-20.45,22.12-54,6.44Z" transform="translate(-95.23 -30.18)" fill="#31D35C"/><path d="M383.43,511.61s21.84-26.33,52.93-1.4c0,0-24.65,23.24-52.93,7.56Z" transform="translate(-95.23 -30.18)" fill="#31D35C"/><path d="M385.39,478.28s23-33.88,52.09-10.92c0,0-24.65,29.13-52.09,17.36Z" transform="translate(-95.23 -30.18)" fill="#31D35C"/><path d="M390.71,439.36s24.36-33.6,52.65-7.84c0,0-28.85,29.12-52.65,14Z" transform="translate(-95.23 -30.18)" fill="#31D35C"/><path d="M398.84,404.57s28.83-31.57,54-19c0,0-30.06,33.53-55.26,27.37Z" transform="translate(-95.23 -30.18)" fill="#31D35C"/><path d="M408.91,371.6s33.33-38.65,52.65-25.77c0,0-24.52,30-55,33.05Z" transform="translate(-95.23 -30.18)" fill="#31D35C"/><path d="M423.46,333.34s29.14-31.58,50.42-23.74c0,0-24.92,32.77-54.33,33.61Z" transform="translate(-95.23 -30.18)" fill="#31D35C"/><path d="M436.64,297.56s32.2-30.24,46.2-24.92c0,0-23.24,33.6-47.6,31.64Z" transform="translate(-95.23 -30.18)" fill="#31D35C"/><path d="M449.52,264.52s27.72-36.12,42.84-33.32c0,0-16.8,32.2-42.84,37Z" transform="translate(-95.23 -30.18)" fill="#31D35C"/><path d="M463.49,220s24.51-27.7,37.74-27.63c0,0-19.34,37-38.74,36.66Z" transform="translate(-95.23 -30.18)" fill="#31D35C"/><path d="M471.78,190.31l23.66-57.68s1.19,52.14-26.68,68.38Z" transform="translate(-95.23 -30.18)" fill="#31D35C"/><path d="M481.38,126.7s3.92-48.16,1.4-52.08c0,0,16.93,40-1.56,73.36Z" transform="translate(-95.23 -30.18)" fill="#31D35C"/><path d="M400.72,627.73s-24.55-15.21-40.43,22c0,0,21.84,14.5,43.31-12.51Z" transform="translate(-95.23 -30.18)" fill="#31D35C"/><path d="M389.93,586.22s-30.1-13.73-44.71,25.12c0,0,23.26,16,47.45-15.3Z" transform="translate(-95.23 -30.18)" fill="#31D35C"/><path d="M385.39,551.44s-21.56-25.2-54,0c0,0,20.44,22.12,54,6.44Z" transform="translate(-95.23 -30.18)" fill="#31D35C"/><path d="M382.7,511.61s-21.85-26.33-52.93-1.4c0,0,24.64,23.24,52.93,7.56Z" transform="translate(-95.23 -30.18)" fill="#31D35C"/><path d="M385.39,479.24s-15.32-37.95-48.62-21.63c0,0,18,33.66,47.27,27.93Z" transform="translate(-95.23 -30.18)" fill="#31D35C"/><path d="M392.64,439.17s-15.22-38.61-49-20.71c0,0,20.68,35.39,47.5,26.68Z" transform="translate(-95.23 -30.18)" fill="#31D35C"/><path d="M402.08,404.77s-6-42.34-33.95-46.13c0,0,5.93,44.64,30.22,53.75Z" transform="translate(-95.23 -30.18)" fill="#31D35C"/><path d="M409.63,371.67s-2.35-51-25.5-52.77c0,0,.78,38.7,22.89,60Z" transform="translate(-95.23 -30.18)" fill="#31D35C"/><path d="M425.87,331.88s-6.91-42.4-29-47.59c0,0,2.74,41.07,26.81,58Z" transform="translate(-95.23 -30.18)" fill="#31D35C"/><path d="M439.26,297.87s-.24-44.18-13.74-50.67c0,0-8.37,40,9.83,56.31Z" transform="translate(-95.23 -30.18)" fill="#31D35C"/><path d="M450.55,264s-1.9-45.5-15.87-51.91c0,0-4.79,36,13.77,54.88Z" transform="translate(-95.23 -30.18)" fill="#31D35C"/><path d="M465.45,223.6s-.09-37-10.07-45.68c0,0-9.92,40.54,4.86,53.12Z" transform="translate(-95.23 -30.18)" fill="#31D35C"/><path d="M470.6,188.49l-9.7-61.59s-13.2,50.47,10.16,72.7Z" transform="translate(-95.23 -30.18)" fill="#31D35C"/><path d="M472.5,127.28s-24.93-41.39-24.41-46c0,0,2.64,43.4,34,65Z" transform="translate(-95.23 -30.18)" fill="#31D35C"/><path d="M475.42,115.06S451.9,56.25,441.26,51.49c0,0,33.6,17.08,36.12,61.89Z" transform="translate(-95.23 -30.18)" fill="#31D35C"/>
<!-- กิ้งไม้ -->
<path d="M462.36,229.35l-1.61-.49c19.85-64.73,24.81-106,13.95-116.34l1.16-1.22C487.36,122.21,482.7,163,462.36,229.35Z" transform="translate(-95.23 -30.18)" fill="#444053"/>
<path d="M407.7,380.87l-2.37-.84c2.1-5.93,4.37-11.95,6.75-17.89,20.72-51.64,38.36-99.67,49.67-136.55l2.07-1c-11.33,36.95-28.65,86.83-49.4,138.53C412.05,369,409.79,375,407.7,380.87Z" transform="translate(-95.23 -30.18)" fill="#444053"/>
<path d="M457.79,737.2c-.32-.36-32.5-36.58-54.92-98.44A364.43,364.43,0,0,1,381.17,526c-1.54-48.13,8.56-101.87,25.86-150.68l1.88,2.2c-38.83,109.56-23.4,203.45-2.94,260,22.2,61.29,54,97.13,54.32,97.48Z" transform="translate(-95.23 -30.18)" fill="#444053"/>

</svg>